<?xml version="1.0" encoding="UTF-8"?>
<svg xmlns="http://www.w3.org/2000/svg" xmlns:xlink="http://www.w3.org/1999/xlink" width="35pt" height="20pt" viewBox="0 0 35 20" version="1.1">
<g id="surface1">
<path style=" stroke:none;fill-rule:nonzero;fill:rgb(100%,71.372549%,0%);fill-opacity:1;" d="M 35 10 C 35 13.300781 30.332031 16 24.5 16 C 18.722656 16 14 13.300781 14 10 C 14 6.699219 18.667969 4 24.445312 4 C 30.332031 4 35 6.699219 35 10 Z M 35 10 "/>
<path style=" stroke:none;fill-rule:nonzero;fill:rgb(96.862745%,59.607843%,11.372549%);fill-opacity:1;" d="M 24.5 4 C 30.277344 4 35 6.699219 35 10 C 35 13.300781 30.332031 16 24.5 16 C 18.722656 16 14 13.300781 14 10 "/>
<path style=" stroke:none;fill-rule:nonzero;fill:rgb(100%,52.156863%,0%);fill-opacity:1;" d="M 24.5 4 C 30.277344 4 35 6.699219 35 10 C 35 13.300781 30.332031 16 24.5 16 "/>
<path style=" stroke:none;fill-rule:nonzero;fill:rgb(100%,31.372549%,31.372549%);fill-opacity:1;" d="M 10.390625 4 C 4.667969 4.03125 0 6.699219 0 10 C 0 13.300781 4.667969 16 10.5 16 C 13.222656 16 15.667969 15.398438 17.554688 14.445312 C 17.945312 14.253906 18.277344 14.03125 18.609375 13.808594 L 16.445312 13.808594 C 16.167969 13.617188 15.890625 13.398438 15.667969 13.207031 L 19.390625 13.207031 C 19.609375 13.015625 19.832031 12.792969 20 12.570312 L 15.054688 12.570312 C 14.890625 12.382812 14.722656 12.160156 14.609375 11.9375 L 20.390625 11.9375 C 20.722656 11.332031 20.945312 10.699219 20.945312 10.03125 C 20.945312 9.585938 20.832031 9.175781 20.722656 8.761719 L 14.277344 8.761719 C 14.332031 8.539062 14.445312 8.347656 14.554688 8.128906 L 20.332031 8.128906 C 20.222656 7.90625 20.054688 7.683594 19.890625 7.492188 L 15 7.492188 C 15.167969 7.269531 15.390625 7.078125 15.609375 6.855469 L 19.332031 6.855469 C 19.109375 6.636719 18.832031 6.414062 18.5 6.222656 L 16.445312 6.222656 C 16.777344 6 17.109375 5.808594 17.5 5.617188 C 15.667969 4.636719 13.167969 4.0625 10.445312 4.0625 C 10.445312 4 10.445312 4 10.390625 4 Z M 10.390625 4 "/>
<path style=" stroke:none;fill-rule:nonzero;fill:rgb(89.803922%,15.686275%,21.176471%);fill-opacity:1;" d="M 0 10 C 0 13.300781 4.667969 16 10.5 16 C 13.222656 16 15.667969 15.398438 17.554688 14.445312 C 17.945312 14.253906 18.277344 14.03125 18.609375 13.808594 L 16.445312 13.808594 C 16.167969 13.617188 15.890625 13.398438 15.667969 13.207031 L 19.390625 13.207031 C 19.609375 13.015625 19.832031 12.792969 20 12.570312 L 15.054688 12.570312 C 14.890625 12.382812 14.722656 12.160156 14.609375 11.9375 L 20.390625 11.9375 C 20.722656 11.332031 20.945312 10.699219 20.945312 10.03125 C 20.945312 9.585938 20.832031 9.175781 20.722656 8.761719 L 14.277344 8.761719 C 14.332031 8.539062 14.445312 8.347656 14.554688 8.128906 L 20.332031 8.128906 C 20.222656 7.90625 20.054688 7.683594 19.890625 7.492188 L 15 7.492188 C 15.167969 7.269531 15.390625 7.078125 15.609375 6.855469 L 19.332031 6.855469 C 19.109375 6.636719 18.832031 6.414062 18.5 6.222656 L 16.445312 6.222656 C 16.777344 6 17.109375 5.808594 17.5 5.617188 C 15.667969 4.636719 13.167969 4.0625 10.445312 4.0625 L 10.390625 4.0625 "/>
<path style=" stroke:none;fill-rule:nonzero;fill:rgb(79.607843%,12.54902%,14.901961%);fill-opacity:1;" d="M 10.5 16 C 13.222656 16 15.667969 15.398438 17.554688 14.445312 C 17.945312 14.253906 18.277344 14.03125 18.609375 13.808594 L 16.445312 13.808594 C 16.167969 13.617188 15.890625 13.398438 15.667969 13.207031 L 19.390625 13.207031 C 19.609375 13.015625 19.832031 12.792969 20 12.570312 L 15.054688 12.570312 C 14.890625 12.382812 14.722656 12.160156 14.609375 11.9375 L 20.390625 11.9375 C 20.722656 11.332031 20.945312 10.699219 20.945312 10.03125 C 20.945312 9.585938 20.832031 9.175781 20.722656 8.761719 L 14.277344 8.761719 C 14.332031 8.539062 14.445312 8.347656 14.554688 8.128906 L 20.332031 8.128906 C 20.222656 7.90625 20.054688 7.683594 19.890625 7.492188 L 15 7.492188 C 15.167969 7.269531 15.390625 7.078125 15.609375 6.855469 L 19.332031 6.855469 C 19.109375 6.636719 18.832031 6.414062 18.5 6.222656 L 16.445312 6.222656 C 16.777344 6 17.109375 5.808594 17.5 5.617188 C 15.667969 4.636719 13.167969 4.0625 10.445312 4.0625 L 10.390625 4.0625 "/>
<path style=" stroke:none;fill-rule:nonzero;fill:rgb(100%,100%,100%);fill-opacity:1;" d="M 14.222656 11.523438 L 14.390625 10.984375 C 14.332031 10.984375 14.222656 11.015625 14.109375 11.015625 C 13.722656 11.015625 13.667969 10.890625 13.722656 10.824219 L 14.054688 9.714844 L 14.667969 9.714844 L 14.832031 9.109375 L 14.277344 9.109375 L 14.390625 8.730469 L 13.277344 8.730469 C 13.277344 8.730469 12.609375 10.824219 12.609375 11.078125 C 12.609375 11.460938 13 11.617188 13.5 11.617188 C 13.832031 11.617188 14.109375 11.554688 14.222656 11.523438 Z M 14.222656 11.523438 "/>
<path style=" stroke:none;fill-rule:nonzero;fill:rgb(100%,100%,100%);fill-opacity:1;" d="M 14.609375 10.507812 C 14.609375 11.398438 15.667969 11.617188 16.554688 11.617188 C 17.390625 11.617188 17.722656 11.523438 17.722656 11.523438 L 17.945312 10.921875 C 17.945312 10.921875 17.332031 11.078125 16.777344 11.078125 C 15.554688 11.078125 15.777344 10.570312 15.777344 10.570312 L 18.054688 10.570312 C 18.054688 10.570312 18.222656 10.160156 18.222656 10 C 18.222656 9.585938 17.832031 9.078125 16.609375 9.078125 C 15.445312 9.015625 14.609375 9.714844 14.609375 10.507812 Z M 16.554688 9.585938 C 17.167969 9.585938 17.054688 10 17.054688 10.03125 L 15.832031 10.03125 C 15.832031 10 15.945312 9.585938 16.554688 9.585938 Z M 16.554688 9.585938 "/>
<path style=" stroke:none;fill-rule:nonzero;fill:rgb(100%,100%,100%);fill-opacity:1;" d="M 23.609375 11.523438 L 23.832031 10.824219 C 23.832031 10.824219 23.277344 10.984375 22.890625 10.984375 C 22.109375 10.984375 21.777344 10.636719 21.777344 10.253906 C 21.777344 9.492188 22.445312 9.078125 23.222656 9.078125 C 23.777344 9.078125 24.222656 9.269531 24.222656 9.269531 L 24.390625 8.601562 C 24.390625 8.601562 23.722656 8.445312 23.109375 8.445312 C 21.832031 8.445312 20.554688 9.078125 20.554688 10.285156 C 20.554688 11.078125 21.222656 11.617188 22.554688 11.617188 C 23 11.617188 23.609375 11.523438 23.609375 11.523438 Z M 23.609375 11.523438 "/>
<path style=" stroke:none;fill-rule:nonzero;fill:rgb(100%,100%,100%);fill-opacity:1;" d="M 8.109375 9.015625 C 7.332031 9.015625 6.777344 9.144531 6.777344 9.144531 L 6.609375 9.683594 C 6.609375 9.683594 7.109375 9.554688 7.832031 9.554688 C 8.222656 9.554688 8.554688 9.585938 8.554688 9.777344 C 8.554688 9.90625 8.5 9.9375 8.5 9.9375 C 8.5 9.9375 8.167969 9.9375 8 9.9375 C 7.054688 9.9375 6 10.160156 6 10.890625 C 6 11.460938 6.667969 11.585938 7.054688 11.585938 C 7.832031 11.585938 8.167969 11.300781 8.222656 11.300781 L 8.167969 11.554688 L 9.167969 11.554688 L 9.609375 9.808594 C 9.609375 9.046875 8.5 9.015625 8.109375 9.015625 Z M 8.332031 10.445312 C 8.332031 10.539062 8.222656 11.046875 7.554688 11.046875 C 7.222656 11.046875 7.109375 10.890625 7.109375 10.792969 C 7.109375 10.636719 7.277344 10.414062 8.109375 10.414062 C 8.277344 10.445312 8.332031 10.445312 8.332031 10.445312 Z M 8.332031 10.445312 "/>
<path style=" stroke:none;fill-rule:nonzero;fill:rgb(100%,100%,100%);fill-opacity:1;" d="M 10.667969 11.585938 C 10.945312 11.585938 12.332031 11.617188 12.332031 10.761719 C 12.332031 9.96875 11 10.128906 11 9.808594 C 11 9.652344 11.222656 9.585938 11.609375 9.585938 C 11.777344 9.585938 12.390625 9.617188 12.390625 9.617188 L 12.554688 9.046875 C 12.554688 9.046875 12.167969 8.984375 11.5 8.984375 C 10.667969 8.984375 9.832031 9.175781 9.832031 9.808594 C 9.832031 10.539062 11.222656 10.476562 11.222656 10.761719 C 11.222656 10.953125 10.832031 10.984375 10.554688 10.984375 C 10.054688 10.984375 9.554688 10.890625 9.554688 10.890625 L 9.390625 11.460938 C 9.445312 11.523438 9.722656 11.585938 10.667969 11.585938 Z M 10.667969 11.585938 "/>
<path style=" stroke:none;fill-rule:nonzero;fill:rgb(100%,100%,100%);fill-opacity:1;" d="M 32.832031 8.507812 L 32.609375 9.363281 C 32.609375 9.363281 32.167969 9.046875 31.554688 9.046875 C 30.554688 9.046875 29.667969 9.746094 29.667969 10.570312 C 29.667969 11.078125 30.109375 11.617188 31.054688 11.617188 C 31.722656 11.617188 32.109375 11.363281 32.109375 11.363281 L 32.054688 11.585938 L 33.167969 11.585938 L 34 8.539062 Z M 32.332031 10.191406 C 32.332031 10.539062 32.054688 10.984375 31.445312 10.984375 C 31.054688 10.984375 30.832031 10.792969 30.832031 10.476562 C 30.832031 9.96875 31.222656 9.652344 31.722656 9.652344 C 32.109375 9.652344 32.332031 9.808594 32.332031 10.191406 Z M 32.332031 10.191406 "/>
<path style=" stroke:none;fill-rule:nonzero;fill:rgb(100%,100%,100%);fill-opacity:1;" d="M 2.054688 11.554688 L 2.722656 9.269531 L 2.832031 11.554688 L 3.609375 11.554688 L 5.054688 9.269531 L 4.445312 11.554688 L 5.609375 11.554688 L 6.5 8.507812 L 4.667969 8.507812 L 3.554688 10.382812 L 3.5 8.507812 L 1.890625 8.507812 L 1 11.554688 Z M 2.054688 11.554688 "/>
<path style=" stroke:none;fill-rule:nonzero;fill:rgb(100%,100%,100%);fill-opacity:1;" d="M 19.277344 11.554688 C 19.609375 10.507812 19.667969 9.652344 20.445312 9.808594 C 20.554688 9.398438 20.722656 9.238281 20.832031 9.078125 C 20.832031 9.078125 20.777344 9.078125 20.609375 9.078125 C 20.109375 9.078125 19.722656 9.460938 19.722656 9.460938 L 19.832031 9.109375 L 18.777344 9.109375 L 18.054688 11.585938 L 19.277344 11.585938 Z M 19.277344 11.554688 "/>
<path style=" stroke:none;fill-rule:nonzero;fill:rgb(100%,100%,100%);fill-opacity:1;" d="M 26.167969 9.015625 C 25.390625 9.015625 24.832031 9.144531 24.832031 9.144531 L 24.667969 9.683594 C 24.667969 9.683594 25.167969 9.554688 25.890625 9.554688 C 26.277344 9.554688 26.609375 9.585938 26.609375 9.777344 C 26.609375 9.90625 26.554688 9.9375 26.554688 9.9375 C 26.554688 9.9375 26.222656 9.9375 26.054688 9.9375 C 25.109375 9.9375 24.054688 10.160156 24.054688 10.890625 C 24.054688 11.460938 24.722656 11.585938 25.109375 11.585938 C 25.890625 11.585938 26.222656 11.300781 26.277344 11.300781 L 26.222656 11.554688 L 27.222656 11.554688 L 27.667969 9.808594 C 27.722656 9.046875 26.554688 9.015625 26.167969 9.015625 Z M 26.445312 10.445312 C 26.445312 10.539062 26.332031 11.046875 25.667969 11.046875 C 25.332031 11.046875 25.222656 10.890625 25.222656 10.792969 C 25.222656 10.636719 25.390625 10.414062 26.222656 10.414062 C 26.390625 10.445312 26.390625 10.445312 26.445312 10.445312 Z M 26.445312 10.445312 "/>
<path style=" stroke:none;fill-rule:nonzero;fill:rgb(100%,100%,100%);fill-opacity:1;" d="M 28.609375 11.554688 C 28.945312 10.507812 29 9.652344 29.777344 9.808594 C 29.890625 9.398438 30.054688 9.238281 30.167969 9.078125 C 30.167969 9.078125 30.109375 9.078125 29.945312 9.078125 C 29.445312 9.078125 29.054688 9.460938 29.054688 9.460938 L 29.167969 9.109375 L 28.109375 9.109375 L 27.390625 11.585938 L 28.609375 11.585938 Z M 28.609375 11.554688 "/>
<path style=" stroke:none;fill-rule:nonzero;fill:rgb(86.27451%,89.803922%,89.803922%);fill-opacity:1;" d="M 12.5 11.078125 C 12.5 11.460938 12.890625 11.617188 13.390625 11.617188 C 13.777344 11.617188 14.109375 11.554688 14.222656 11.523438 L 14.390625 10.984375 C 14.332031 10.984375 14.222656 11.015625 14.109375 11.015625 C 13.722656 11.015625 13.667969 10.890625 13.722656 10.824219 L 14.054688 9.714844 L 14.667969 9.714844 L 14.832031 9.109375 L 14.277344 9.109375 L 14.390625 8.730469 "/>
<path style=" stroke:none;fill-rule:nonzero;fill:rgb(86.27451%,89.803922%,89.803922%);fill-opacity:1;" d="M 15.167969 10.507812 C 15.167969 11.398438 15.667969 11.617188 16.554688 11.617188 C 17.390625 11.617188 17.722656 11.523438 17.722656 11.523438 L 17.945312 10.921875 C 17.945312 10.921875 17.332031 11.078125 16.777344 11.078125 C 15.554688 11.078125 15.777344 10.570312 15.777344 10.570312 L 18.054688 10.570312 C 18.054688 10.570312 18.222656 10.160156 18.222656 10 C 18.222656 9.585938 17.832031 9.078125 16.609375 9.078125 C 15.445312 9.015625 15.167969 9.714844 15.167969 10.507812 Z M 16.554688 9.585938 C 17.167969 9.585938 17.277344 10 17.277344 10.03125 L 15.832031 10.03125 C 15.832031 10 15.945312 9.585938 16.554688 9.585938 Z M 16.554688 9.585938 "/>
<path style=" stroke:none;fill-rule:nonzero;fill:rgb(86.27451%,89.803922%,89.803922%);fill-opacity:1;" d="M 23.609375 11.523438 L 23.832031 10.824219 C 23.832031 10.824219 23.277344 10.984375 22.890625 10.984375 C 22.109375 10.984375 21.777344 10.636719 21.777344 10.253906 C 21.777344 9.492188 22.445312 9.078125 23.222656 9.078125 C 23.777344 9.078125 24.222656 9.269531 24.222656 9.269531 L 24.390625 8.601562 C 24.390625 8.601562 23.722656 8.445312 23.109375 8.445312 C 21.832031 8.445312 21.109375 9.078125 21.109375 10.285156 C 21.109375 11.078125 21.222656 11.617188 22.554688 11.617188 C 23 11.617188 23.609375 11.523438 23.609375 11.523438 Z M 23.609375 11.523438 "/>
<path style=" stroke:none;fill-rule:nonzero;fill:rgb(86.27451%,89.803922%,89.803922%);fill-opacity:1;" d="M 6.609375 9.714844 C 6.609375 9.714844 7.109375 9.585938 7.832031 9.585938 C 8.222656 9.585938 8.554688 9.617188 8.554688 9.808594 C 8.554688 9.9375 8.5 9.96875 8.5 9.96875 C 8.5 9.96875 8.167969 9.96875 8 9.96875 C 7.054688 9.96875 6 10.191406 6 10.921875 C 6 11.492188 6.667969 11.617188 7.054688 11.617188 C 7.832031 11.617188 8.167969 11.332031 8.222656 11.332031 L 8.167969 11.585938 L 9.167969 11.585938 L 9.609375 9.839844 C 9.609375 9.109375 8.5 9.078125 8.054688 9.078125 M 8.890625 10.445312 C 8.890625 10.539062 8.222656 11.046875 7.554688 11.046875 C 7.222656 11.046875 7.109375 10.890625 7.109375 10.792969 C 7.109375 10.636719 7.277344 10.414062 8.109375 10.414062 C 8.277344 10.445312 8.890625 10.445312 8.890625 10.445312 Z M 8.890625 10.445312 "/>
<path style=" stroke:none;fill-rule:nonzero;fill:rgb(86.27451%,89.803922%,89.803922%);fill-opacity:1;" d="M 9.445312 11.523438 C 9.445312 11.523438 9.777344 11.585938 10.722656 11.585938 C 11 11.585938 12.390625 11.617188 12.390625 10.761719 C 12.390625 9.96875 11.054688 10.128906 11.054688 9.808594 C 11.054688 9.652344 11.277344 9.585938 11.667969 9.585938 C 11.832031 9.585938 12.445312 9.617188 12.445312 9.617188 L 12.609375 9.046875 C 12.609375 9.046875 12.222656 8.984375 11.554688 8.984375 C 10.722656 8.984375 10.445312 9.175781 10.445312 9.808594 C 10.445312 10.539062 11.277344 10.476562 11.277344 10.761719 C 11.277344 10.953125 10.890625 10.984375 10.609375 10.984375 "/>
<path style=" stroke:none;fill-rule:nonzero;fill:rgb(86.27451%,89.803922%,89.803922%);fill-opacity:1;" d="M 32.609375 9.363281 C 32.609375 9.363281 32.167969 9.046875 31.554688 9.046875 C 30.554688 9.046875 30.222656 9.746094 30.222656 10.570312 C 30.222656 11.078125 30.109375 11.617188 31.054688 11.617188 C 31.722656 11.617188 32.109375 11.363281 32.109375 11.363281 L 32.054688 11.585938 L 33.167969 11.585938 L 34 8.539062 M 32.554688 10.191406 C 32.554688 10.539062 32.054688 10.984375 31.445312 10.984375 C 31.054688 10.984375 30.832031 10.792969 30.832031 10.476562 C 30.832031 9.96875 31.222656 9.652344 31.722656 9.652344 C 32.109375 9.652344 32.554688 9.808594 32.554688 10.191406 Z M 32.554688 10.191406 "/>
<path style=" stroke:none;fill-rule:nonzero;fill:rgb(86.27451%,89.803922%,89.803922%);fill-opacity:1;" d="M 2.054688 11.554688 L 2.722656 9.269531 L 2.832031 11.554688 L 3.609375 11.554688 L 5.054688 9.269531 L 4.445312 11.554688 L 5.609375 11.554688 L 6.5 8.507812 L 5.109375 8.507812 L 3.554688 10.382812 L 3.5 8.507812 L 2.890625 8.507812 L 1 11.554688 Z M 2.054688 11.554688 "/>
<path style=" stroke:none;fill-rule:nonzero;fill:rgb(86.27451%,89.803922%,89.803922%);fill-opacity:1;" d="M 18.109375 11.554688 L 19.277344 11.554688 C 19.609375 10.507812 19.667969 9.652344 20.445312 9.808594 C 20.554688 9.398438 20.722656 9.238281 20.832031 9.078125 C 20.832031 9.078125 20.777344 9.078125 20.609375 9.078125 C 20.109375 9.078125 19.722656 9.460938 19.722656 9.460938 L 19.832031 9.109375 "/>
<path style=" stroke:none;fill-rule:nonzero;fill:rgb(86.27451%,89.803922%,89.803922%);fill-opacity:1;" d="M 24.667969 9.714844 C 24.667969 9.714844 25.167969 9.585938 25.890625 9.585938 C 26.277344 9.585938 26.609375 9.617188 26.609375 9.808594 C 26.609375 9.9375 26.554688 9.96875 26.554688 9.96875 C 26.554688 9.96875 26.222656 9.96875 26.054688 9.96875 C 25.109375 9.96875 24.054688 10.191406 24.054688 10.921875 C 24.054688 11.492188 24.722656 11.617188 25.109375 11.617188 C 25.890625 11.617188 26.222656 11.332031 26.277344 11.332031 L 26.222656 11.585938 L 27.222656 11.585938 L 27.667969 9.839844 C 27.667969 9.109375 26.554688 9.078125 26.109375 9.078125 M 26.945312 10.445312 C 26.945312 10.539062 26.277344 11.046875 25.609375 11.046875 C 25.277344 11.046875 25.167969 10.890625 25.167969 10.792969 C 25.167969 10.636719 25.332031 10.414062 26.167969 10.414062 C 26.390625 10.445312 26.945312 10.445312 26.945312 10.445312 Z M 26.945312 10.445312 "/>
<path style=" stroke:none;fill-rule:nonzero;fill:rgb(86.27451%,89.803922%,89.803922%);fill-opacity:1;" d="M 27.445312 11.554688 L 28.609375 11.554688 C 28.945312 10.507812 29 9.652344 29.777344 9.808594 C 29.890625 9.398438 30.054688 9.238281 30.167969 9.078125 C 30.167969 9.078125 30.109375 9.078125 29.945312 9.078125 C 29.445312 9.078125 29.054688 9.460938 29.054688 9.460938 L 29.167969 9.109375 "/>
</g>
</svg>
